<svg viewBox="0 0 32532 8640" fill="none" xmlns="http://www.w3.org/2000/svg">
<g id="Group">
<path id="Vector" d="M2547.06 88.516C1967.31 226.889 1537.18 442.752 1107.04 824.662C246.77 1588.48 -64.923 2612.45 240.536 3675.15C521.059 4654.84 1194.32 5319.03 2266.54 5673.26C2777.71 5844.85 3556.95 5905.73 4142.93 5817.17C5439.57 5617.91 6511.79 4715.72 6786.08 3586.59C6898.29 3132.73 6835.95 2269.28 6661.41 1854.16C6281.14 951.966 5377.23 265.634 4305.01 60.8414C3856.17 -22.1826 2964.73 -11.1128 2547.06 88.516ZM4386.05 254.564C5190.22 431.682 5981.92 1007.31 6343.48 1682.58C6698.81 2346.77 6754.91 3199.15 6480.62 3902.08C6200.1 4610.56 5414.63 5280.28 4548.13 5545.96C4012.02 5712.01 3008.37 5723.08 2484.72 5568.1C489.89 4975.86 -301.809 2894.73 870.155 1333.88C1381.33 658.614 2272.77 221.354 3295.12 149.4C3606.82 127.261 3955.91 166.005 4386.05 254.564Z" fill="black"/>
<ellipse id="Ellipse 1" cx="11341.2" cy="2938.79" rx="3364.25" ry="2832.13" fill="#FFCA13"/>
<g id="Vector_2" filter="url(#filter0_d)">
<mask id="path-3-inside-1" fill="white">
<path d="M10401.8 77.5075C9192.38 376.394 8325.88 1178.96 8032.89 2263.81C7920.68 2690 7983.02 3536.84 8157.56 3957.49C8550.3 4881.83 9342 5507.28 10439.2 5756.35C12328 6188.07 14185.7 5241.6 14609.6 3642C14871.4 2656.79 14590.9 1649.43 13855.3 940.956C13163.3 282.299 12390.4 -5.51695 11318.1 5.55292C10969 5.55292 10557.6 38.763 10401.8 77.5075ZM11149.8 1134.68C11149.8 1666.03 11131.1 2103.29 11106.2 2103.29C11075 2103.29 11000.2 2119.9 10925.4 2136.5C10819.4 2158.64 10713.4 2064.55 10308.2 1566.4C10040.2 1239.84 9747.2 891.142 9672.39 791.513C9585.12 697.419 9547.71 603.326 9585.12 586.721C9616.29 570.116 9722.26 658.675 9822 791.513C10351.9 1499.98 10800.7 1992.59 10906.7 1992.59C11018.9 1992.59 11025.1 1937.24 11025.1 1079.33C11025.1 509.232 11050.1 166.066 11087.5 166.066C11124.9 166.066 11149.8 525.837 11149.8 1134.68ZM11523.8 1079.33C11523.8 2252.74 11536.3 2252.74 12334.2 1273.05C12658.4 874.537 12957.6 553.511 13001.3 553.511C13051.1 553.511 12988.8 664.21 12851.7 824.723C12720.7 974.166 12458.9 1284.12 12271.9 1522.12C11723.3 2197.39 11760.7 2169.71 11567.5 2130.97L11399.2 2092.22V1129.14C11399.2 525.836 11424.1 166.066 11461.5 166.066C11498.9 166.066 11523.8 509.232 11523.8 1079.33ZM10775.8 891.142C10775.8 1317.33 10750.8 1544.26 10713.4 1522.12C10676 1499.98 10651.1 1217.7 10651.1 852.397C10651.1 470.487 10676 221.415 10713.4 221.415C10750.8 221.415 10775.8 481.557 10775.8 891.142ZM11897.9 337.649C11854.2 398.533 11810.6 437.277 11791.9 420.673C11742 376.393 11823.1 221.415 11897.9 221.415C11941.5 221.415 11941.5 254.625 11897.9 337.649ZM10420.5 714.024C10432.9 1190.03 10314.5 1223.24 10289.5 747.234C10270.8 437.277 10308.2 232.485 10370.6 287.835C10389.3 304.439 10408 492.627 10420.5 714.024ZM12309.3 359.788C12253.2 498.162 11760.7 1057.19 11723.3 1023.98C11679.7 985.236 12222 276.764 12290.6 276.764C12321.8 276.764 12334.2 315.509 12309.3 359.788ZM10090.1 564.581C10090.1 702.954 10071.4 725.094 10027.7 664.21C9946.68 553.511 9946.68 387.463 10027.7 387.463C10065.1 387.463 10090.1 470.487 10090.1 564.581ZM12708.3 420.673C12708.3 481.557 11810.6 1549.8 11760.7 1549.8C11685.9 1549.8 11816.8 1356.08 12240.7 841.328C12571.1 437.278 12708.3 315.509 12708.3 420.673ZM13331.7 747.234C13331.7 763.838 13063.6 1101.47 12739.4 1499.98C12415.3 1892.96 12147.2 2252.74 12147.2 2297.01C12147.2 2429.85 12365.4 2396.64 13331.7 2108.83C13942.6 1931.71 14248 1859.76 14279.2 1904.03C14304.1 1942.78 14210.6 1992.59 14029.9 2036.87C13867.8 2075.62 13394 2208.46 12976.3 2330.22C12558.7 2446.46 12197.1 2546.09 12165.9 2546.09C12128.5 2546.09 12072.4 2485.2 12028.8 2413.25C11954 2297.01 11978.9 2247.2 12284.4 1876.36C12465.2 1649.43 12645.9 1439.1 12677.1 1405.89C12714.5 1372.68 12851.7 1206.63 12982.6 1035.05C13194.5 758.304 13331.7 647.605 13331.7 747.234ZM9578.88 1035.05C9691.09 1184.49 9921.74 1472.31 10096.3 1688.17C10632.4 2346.83 10607.5 2302.55 10514 2429.85C10470.3 2496.27 10401.8 2546.09 10358.1 2546.09C10177.3 2546.09 8344.58 1970.45 8388.22 1931.71C8419.39 1904.03 8849.52 2003.66 9348.23 2147.57C9846.94 2297.01 10289.5 2402.18 10326.9 2391.11C10464.1 2352.36 10401.8 2219.53 10040.2 1787.8C9610.05 1278.59 9279.66 852.397 9279.66 808.118C9279.66 714.024 9398.1 802.583 9578.88 1035.05ZM9560.18 1566.4C9927.98 2003.66 10027.7 2180.78 9853.17 2081.15C9759.66 2031.34 9030.3 1107 9030.3 1035.05C9030.3 957.561 9061.47 985.236 9560.18 1566.4ZM13668.3 1046.12C13705.7 1101.47 13394 1234.31 13337.9 1190.03C13319.2 1167.89 13356.6 1118.07 13418.9 1073.79C13562.3 985.236 13624.7 974.166 13668.3 1046.12ZM9217.32 1699.24C9323.29 1832.08 9385.63 1937.24 9348.23 1937.24C9260.96 1937.24 8780.95 1367.15 8780.95 1267.52C8780.95 1190.03 8868.22 1267.52 9217.32 1699.24ZM13955 1322.87C13955 1372.68 13786.7 1433.57 13275.6 1577.47C13094.8 1627.29 12932.7 1654.96 12914 1638.36C12870.4 1599.61 13188.3 1466.77 13537.4 1378.22C13699.5 1339.47 13830.4 1284.12 13830.4 1256.45C13830.4 1234.31 13861.5 1228.77 13892.7 1245.38C13930.1 1261.98 13955 1300.73 13955 1322.87ZM8774.72 1743.52C8718.61 1787.8 8525.36 1605.15 8562.76 1549.8C8593.93 1505.52 8637.57 1527.66 8699.91 1605.15C8749.78 1671.57 8780.95 1732.45 8774.72 1743.52ZM14142.1 1599.61C14142.1 1654.96 12633.5 2114.36 12589.8 2070.08C12533.7 2025.8 12652.2 1975.99 13344.1 1771.2C14142.1 1533.19 14142.1 1533.19 14142.1 1599.61ZM14391.4 2180.78C14391.4 2230.6 14061 2352.36 13400.2 2540.55C12502.6 2795.16 12228.3 2922.46 12390.4 3011.02C12415.3 3027.63 12876.6 3166 13412.7 3320.98C14129.6 3525.77 14391.4 3625.4 14391.4 3691.82C14391.4 3752.7 14366.5 3763.77 14316.6 3725.03C14273 3691.82 13780.5 3536.84 13225.7 3381.86C12228.3 3099.58 12209.6 3094.05 12209.6 2939.07C12209.6 2756.41 12172.2 2773.02 13362.8 2435.39C13811.7 2308.08 14216.9 2180.78 14266.7 2153.11C14391.4 2092.22 14391.4 2092.22 14391.4 2180.78ZM9111.34 2413.25C10370.6 2773.02 10339.4 2756.41 10339.4 2933.53C10339.4 3110.65 10351.9 3105.12 9167.45 3431.68C8706.14 3558.98 8319.64 3647.54 8294.71 3630.93C8244.84 3581.12 8251.07 3575.58 9236.02 3298.84C10408 2961.21 10420.5 2922.46 9423.04 2634.65C8307.18 2313.62 8282.24 2308.08 8282.24 2258.27C8282.24 2186.32 8375.75 2202.92 9111.34 2413.25ZM11767 2518.41C11910.3 2667.86 11960.2 2767.48 11960.2 2933.53C11960.2 3099.58 11910.3 3199.21 11767 3348.65C11598.7 3520.24 11536.3 3542.37 11280.7 3542.37C11031.4 3542.37 10956.6 3514.7 10794.5 3359.72C10470.3 3055.3 10470.3 2789.62 10807 2474.13C10937.9 2352.36 11018.9 2324.69 11268.3 2324.69C11536.3 2324.69 11592.4 2346.83 11767 2518.41ZM9017.84 2723.2C9578.88 2883.72 9803.3 2988.88 9578.88 2988.88C9454.21 2988.88 8319.64 2651.25 8257.31 2595.9C8145.1 2507.34 8357.05 2540.55 9017.84 2723.2ZM14478.7 2634.65C14509.9 2706.6 14491.2 2717.67 14379 2690C14297.9 2673.39 14198.2 2656.79 14160.8 2656.79C14117.1 2656.79 14079.7 2629.11 14079.7 2601.44C14079.7 2507.34 14435.1 2540.55 14478.7 2634.65ZM14067.3 2828.37C14310.4 2894.79 14516.1 2977.81 14516.1 3016.56C14516.1 3060.84 14366.5 3044.23 14036.1 2944.6C13225.7 2717.67 13256.9 2618.04 14067.3 2828.37ZM8612.64 2955.67C9067.71 3099.58 9179.92 3154.93 8992.9 3154.93C8805.88 3149.39 8194.97 2950.14 8170.03 2883.72C8138.86 2806.23 8120.16 2800.69 8612.64 2955.67ZM13749.3 3077.44C14341.5 3249.02 14453.8 3298.84 14453.8 3392.93C14453.8 3492.56 14441.3 3498.1 14379 3420.61C14335.3 3376.33 13980 3254.56 13599.7 3154.93C13213.2 3049.77 12895.3 2950.14 12895.3 2922.46C12895.3 2844.97 13026.2 2872.65 13749.3 3077.44ZM8469.26 3271.16C8469.26 3298.84 8413.15 3320.98 8344.58 3320.98C8276.01 3320.98 8219.9 3287.77 8219.9 3243.49C8219.9 3193.67 8263.54 3177.07 8344.58 3193.67C8413.15 3210.28 8469.26 3243.49 8469.26 3271.16ZM10526.4 3453.82C10595 3575.58 10588.8 3608.79 10408 3813.59C10189.8 4057.12 9878.11 4433.5 9578.88 4826.48C9398.1 5064.48 9279.66 5153.04 9279.66 5058.95C9279.66 5036.81 9535.25 4710.25 9840.7 4328.34C10383 3658.61 10464.1 3525.77 10345.6 3464.89C10320.7 3448.28 9878.11 3558.98 9373.17 3708.42C8531.59 3957.49 8307.18 4001.77 8431.85 3891.08C8487.96 3841.26 10208.5 3332.05 10345.6 3326.51C10401.8 3320.98 10476.6 3381.86 10526.4 3453.82ZM13244.4 3608.79C13805.4 3769.31 14266.7 3929.82 14266.7 3963.03C14266.7 3996.24 13836.6 3896.61 13288 3736.1C12745.7 3575.58 12265.7 3459.35 12228.3 3475.96C12072.4 3520.24 12153.5 3653.07 12733.2 4367.08C13057.4 4760.06 13306.7 5097.69 13288 5114.3C13263.1 5130.9 13026.2 4881.83 12758.1 4555.27C12490.1 4223.17 12228.3 3913.22 12178.4 3863.4C11991.4 3664.14 11954 3547.91 12035 3431.68C12078.7 3370.79 12141 3320.98 12172.2 3320.98C12203.3 3320.98 12683.3 3453.82 13244.4 3608.79ZM11012.7 3741.63C11149.8 3774.84 11149.8 3785.91 11149.8 4743.46C11149.8 5368.9 11131.1 5695.46 11087.5 5673.32C11050.1 5651.18 11025.1 5285.88 11025.1 4754.52C11025.1 3907.68 11018.9 3874.47 10900.5 3874.47C10831.9 3874.47 10725.9 3940.89 10663.6 4029.45C10432.9 4356.01 9634.99 5258.2 9578.88 5258.2C9535.25 5258.2 9535.25 5236.06 9572.65 5186.25C9797.07 4931.64 10408 4189.96 10576.3 3968.56C10794.5 3691.82 10794.5 3691.82 11012.7 3741.63ZM12153.5 4189.96C12365.4 4461.17 12652.2 4809.87 12789.3 4970.39C12926.5 5130.9 13020 5274.81 13001.3 5296.95C12963.9 5330.16 12783.1 5153.04 12583.6 4892.9C12190.9 4367.08 11729.6 3874.47 11636.1 3874.47C11530.1 3874.47 11523.8 3946.42 11523.8 4787.73C11523.8 5357.83 11498.9 5701 11461.5 5701C11361.8 5701 11380.5 3780.38 11480.2 3747.17C11685.9 3669.68 11785.7 3730.56 12153.5 4189.96ZM9903.04 3841.26C9828.24 3907.68 8706.14 4261.92 8569 4261.92C8550.3 4261.92 8531.6 4239.78 8531.6 4212.1C8531.6 4184.43 8774.72 4095.87 9080.17 4018.38C9379.4 3935.35 9678.62 3846.8 9747.2 3819.12C9934.21 3747.17 10002.8 3752.7 9903.04 3841.26ZM13138.4 4322.8C13387.8 4627.22 13581 4892.9 13556.1 4909.5C13537.4 4931.64 13512.4 4931.64 13500 4920.57C13425.2 4826.48 12901.5 4195.5 12758.1 4029.45C12664.6 3918.75 12583.6 3813.59 12583.6 3796.98C12583.6 3680.75 12745.7 3835.73 13138.4 4322.8ZM13549.8 4267.45C13705.7 4455.64 13817.9 4621.69 13799.2 4638.29C13755.6 4677.04 13662.1 4588.48 13369.1 4217.64C13238.2 4062.66 13163.3 3929.82 13200.8 3929.82C13238.2 3929.82 13394 4084.8 13549.8 4267.45ZM13948.8 4217.64C14017.4 4278.52 14061 4356.01 14042.3 4383.68C14023.6 4411.36 13998.7 4427.96 13992.5 4416.89C13992.5 4405.82 13917.6 4333.87 13836.6 4245.31C13655.8 4068.19 13768 4040.52 13948.8 4217.64ZM9591.35 4256.38C9591.35 4333.87 8799.65 4577.41 8737.31 4516.52C8681.21 4466.71 8712.38 4455.64 9123.81 4333.87C9578.88 4195.5 9591.35 4195.5 9591.35 4256.38ZM11897.9 5047.88C11897.9 5407.65 11872.9 5645.65 11835.5 5645.65C11804.4 5645.65 11773.2 5540.49 11767 5407.65C11767 5280.34 11760.7 4970.39 11754.5 4715.78C11742 4339.41 11754.5 4278.52 11823.1 4356.01C11872.9 4416.89 11897.9 4654.9 11897.9 5047.88ZM10775.8 4389.22C10775.8 4422.43 10619.9 4643.83 10426.7 4870.76C10239.7 5097.69 10058.9 5324.62 10027.7 5368.9C9996.55 5413.18 9959.15 5435.32 9934.21 5418.72C9890.58 5374.44 10002.8 5208.39 10420.5 4688.11C10732.1 4306.2 10775.8 4267.45 10775.8 4389.22ZM9217.32 4732.39C9130.04 4820.94 8967.96 4843.08 8967.96 4765.59C8967.96 4710.25 9073.94 4660.43 9211.09 4654.9C9279.66 4649.36 9279.66 4665.97 9217.32 4732.39ZM12265.7 5125.37C12271.9 5418.72 12228.3 5590.3 12141 5590.3C12109.8 5590.3 12084.9 5385.51 12084.9 5130.9C12091.1 4748.99 12103.6 4693.64 12172.2 4771.13C12215.8 4826.48 12259.4 4986.99 12265.7 5125.37ZM10557.6 5258.2C10432.9 5413.18 10302 5534.95 10264.6 5534.95C10227.2 5534.95 10245.9 5479.6 10295.8 5407.65C10351.9 5341.23 10476.6 5180.71 10570.1 5047.88C10682.3 4898.43 10750.8 4843.08 10763.3 4898.43C10775.8 4942.71 10682.3 5108.76 10557.6 5258.2ZM12583.6 5252.67C12583.6 5280.34 12602.3 5341.23 12621 5391.04C12645.9 5451.93 12627.2 5479.6 12558.7 5479.6C12496.3 5479.6 12458.9 5429.79 12458.9 5341.23C12458.9 5263.74 12490.1 5202.85 12521.3 5202.85C12558.7 5202.85 12583.6 5224.99 12583.6 5252.67ZM10719.7 5606.9C10613.7 5701 10570.1 5612.44 10663.6 5485.14C10732.1 5385.51 10750.8 5379.97 10763.3 5457.46C10775.8 5507.28 10757.1 5573.7 10719.7 5606.9Z"/>
</mask>
<path d="M10401.8 77.5075C9192.38 376.394 8325.88 1178.96 8032.89 2263.81C7920.68 2690 7983.02 3536.84 8157.56 3957.49C8550.3 4881.83 9342 5507.28 10439.2 5756.35C12328 6188.07 14185.7 5241.6 14609.6 3642C14871.4 2656.79 14590.9 1649.43 13855.3 940.956C13163.3 282.299 12390.4 -5.51695 11318.1 5.55292C10969 5.55292 10557.6 38.763 10401.8 77.5075ZM11149.8 1134.68C11149.8 1666.03 11131.1 2103.29 11106.2 2103.29C11075 2103.29 11000.2 2119.9 10925.4 2136.5C10819.4 2158.64 10713.4 2064.55 10308.2 1566.4C10040.2 1239.84 9747.2 891.142 9672.39 791.513C9585.12 697.419 9547.71 603.326 9585.12 586.721C9616.29 570.116 9722.26 658.675 9822 791.513C10351.9 1499.98 10800.7 1992.59 10906.7 1992.59C11018.9 1992.59 11025.1 1937.24 11025.1 1079.33C11025.1 509.232 11050.1 166.066 11087.5 166.066C11124.9 166.066 11149.8 525.837 11149.8 1134.68ZM11523.8 1079.33C11523.8 2252.74 11536.3 2252.74 12334.2 1273.05C12658.4 874.537 12957.6 553.511 13001.3 553.511C13051.1 553.511 12988.8 664.21 12851.7 824.723C12720.7 974.166 12458.9 1284.12 12271.9 1522.12C11723.3 2197.39 11760.7 2169.71 11567.5 2130.97L11399.2 2092.22V1129.14C11399.2 525.836 11424.1 166.066 11461.5 166.066C11498.9 166.066 11523.8 509.232 11523.8 1079.33ZM10775.8 891.142C10775.8 1317.33 10750.8 1544.26 10713.4 1522.12C10676 1499.98 10651.1 1217.7 10651.1 852.397C10651.1 470.487 10676 221.415 10713.4 221.415C10750.8 221.415 10775.8 481.557 10775.8 891.142ZM11897.9 337.649C11854.2 398.533 11810.6 437.277 11791.9 420.673C11742 376.393 11823.1 221.415 11897.9 221.415C11941.5 221.415 11941.5 254.625 11897.9 337.649ZM10420.5 714.024C10432.9 1190.03 10314.5 1223.24 10289.5 747.234C10270.8 437.277 10308.2 232.485 10370.6 287.835C10389.3 304.439 10408 492.627 10420.5 714.024ZM12309.3 359.788C12253.2 498.162 11760.7 1057.19 11723.3 1023.98C11679.7 985.236 12222 276.764 12290.6 276.764C12321.8 276.764 12334.2 315.509 12309.3 359.788ZM10090.1 564.581C10090.1 702.954 10071.4 725.094 10027.7 664.21C9946.68 553.511 9946.68 387.463 10027.7 387.463C10065.1 387.463 10090.1 470.487 10090.1 564.581ZM12708.3 420.673C12708.3 481.557 11810.6 1549.8 11760.7 1549.8C11685.9 1549.8 11816.8 1356.08 12240.7 841.328C12571.1 437.278 12708.3 315.509 12708.3 420.673ZM13331.7 747.234C13331.7 763.838 13063.6 1101.47 12739.4 1499.98C12415.3 1892.96 12147.2 2252.74 12147.2 2297.01C12147.2 2429.85 12365.4 2396.64 13331.7 2108.83C13942.6 1931.71 14248 1859.76 14279.2 1904.03C14304.1 1942.78 14210.6 1992.59 14029.9 2036.87C13867.8 2075.62 13394 2208.46 12976.3 2330.22C12558.7 2446.46 12197.1 2546.09 12165.9 2546.09C12128.5 2546.09 12072.4 2485.2 12028.8 2413.25C11954 2297.01 11978.9 2247.2 12284.4 1876.36C12465.2 1649.43 12645.9 1439.1 12677.1 1405.89C12714.5 1372.68 12851.7 1206.63 12982.6 1035.05C13194.5 758.304 13331.7 647.605 13331.7 747.234ZM9578.88 1035.05C9691.09 1184.49 9921.74 1472.31 10096.3 1688.17C10632.4 2346.83 10607.5 2302.55 10514 2429.85C10470.3 2496.27 10401.8 2546.09 10358.1 2546.09C10177.3 2546.09 8344.58 1970.45 8388.22 1931.71C8419.39 1904.03 8849.52 2003.66 9348.23 2147.57C9846.94 2297.01 10289.5 2402.18 10326.9 2391.11C10464.1 2352.36 10401.8 2219.53 10040.2 1787.8C9610.05 1278.59 9279.66 852.397 9279.66 808.118C9279.66 714.024 9398.1 802.583 9578.88 1035.05ZM9560.18 1566.4C9927.98 2003.66 10027.7 2180.78 9853.17 2081.15C9759.66 2031.34 9030.3 1107 9030.3 1035.05C9030.3 957.561 9061.47 985.236 9560.18 1566.4ZM13668.3 1046.12C13705.7 1101.47 13394 1234.31 13337.9 1190.03C13319.2 1167.89 13356.6 1118.07 13418.9 1073.79C13562.3 985.236 13624.7 974.166 13668.3 1046.12ZM9217.32 1699.24C9323.29 1832.08 9385.63 1937.24 9348.23 1937.24C9260.96 1937.24 8780.95 1367.15 8780.95 1267.52C8780.95 1190.03 8868.22 1267.52 9217.32 1699.24ZM13955 1322.87C13955 1372.68 13786.7 1433.57 13275.6 1577.47C13094.8 1627.29 12932.7 1654.96 12914 1638.36C12870.4 1599.61 13188.3 1466.77 13537.4 1378.22C13699.5 1339.47 13830.4 1284.12 13830.4 1256.45C13830.4 1234.31 13861.5 1228.77 13892.7 1245.38C13930.1 1261.98 13955 1300.73 13955 1322.87ZM8774.72 1743.52C8718.61 1787.8 8525.36 1605.15 8562.76 1549.8C8593.93 1505.52 8637.57 1527.66 8699.91 1605.15C8749.78 1671.57 8780.95 1732.45 8774.72 1743.52ZM14142.1 1599.61C14142.1 1654.96 12633.5 2114.36 12589.8 2070.08C12533.7 2025.8 12652.2 1975.99 13344.1 1771.2C14142.1 1533.19 14142.1 1533.19 14142.1 1599.61ZM14391.4 2180.78C14391.4 2230.6 14061 2352.36 13400.2 2540.55C12502.6 2795.16 12228.3 2922.46 12390.4 3011.02C12415.3 3027.63 12876.6 3166 13412.7 3320.98C14129.6 3525.77 14391.4 3625.4 14391.4 3691.82C14391.4 3752.7 14366.5 3763.77 14316.6 3725.03C14273 3691.82 13780.5 3536.84 13225.7 3381.86C12228.3 3099.58 12209.6 3094.05 12209.6 2939.07C12209.6 2756.41 12172.2 2773.02 13362.8 2435.39C13811.7 2308.08 14216.9 2180.78 14266.7 2153.11C14391.4 2092.22 14391.4 2092.22 14391.4 2180.78ZM9111.34 2413.25C10370.6 2773.02 10339.4 2756.41 10339.4 2933.53C10339.4 3110.65 10351.9 3105.12 9167.45 3431.68C8706.14 3558.98 8319.64 3647.54 8294.71 3630.93C8244.84 3581.12 8251.07 3575.58 9236.02 3298.84C10408 2961.21 10420.5 2922.46 9423.04 2634.65C8307.18 2313.62 8282.24 2308.08 8282.24 2258.27C8282.24 2186.32 8375.75 2202.92 9111.34 2413.25ZM11767 2518.41C11910.3 2667.86 11960.2 2767.48 11960.2 2933.53C11960.2 3099.58 11910.3 3199.21 11767 3348.65C11598.7 3520.24 11536.3 3542.37 11280.7 3542.37C11031.4 3542.37 10956.6 3514.7 10794.5 3359.72C10470.3 3055.3 10470.3 2789.62 10807 2474.13C10937.9 2352.36 11018.9 2324.69 11268.3 2324.69C11536.3 2324.69 11592.4 2346.83 11767 2518.41ZM9017.84 2723.2C9578.88 2883.72 9803.3 2988.88 9578.88 2988.88C9454.21 2988.88 8319.64 2651.25 8257.31 2595.9C8145.1 2507.34 8357.05 2540.55 9017.84 2723.2ZM14478.7 2634.65C14509.9 2706.6 14491.2 2717.67 14379 2690C14297.9 2673.39 14198.2 2656.79 14160.8 2656.79C14117.1 2656.79 14079.7 2629.11 14079.7 2601.44C14079.7 2507.34 14435.1 2540.55 14478.7 2634.65ZM14067.3 2828.37C14310.4 2894.79 14516.1 2977.81 14516.1 3016.56C14516.1 3060.84 14366.5 3044.23 14036.1 2944.6C13225.7 2717.67 13256.9 2618.04 14067.3 2828.37ZM8612.64 2955.67C9067.71 3099.58 9179.92 3154.93 8992.9 3154.93C8805.88 3149.39 8194.97 2950.14 8170.03 2883.72C8138.86 2806.23 8120.16 2800.69 8612.64 2955.67ZM13749.3 3077.44C14341.5 3249.02 14453.8 3298.84 14453.8 3392.93C14453.8 3492.56 14441.3 3498.1 14379 3420.61C14335.3 3376.33 13980 3254.56 13599.7 3154.93C13213.2 3049.77 12895.3 2950.14 12895.3 2922.46C12895.3 2844.97 13026.2 2872.65 13749.3 3077.44ZM8469.26 3271.16C8469.26 3298.84 8413.15 3320.98 8344.58 3320.98C8276.01 3320.98 8219.9 3287.77 8219.9 3243.49C8219.9 3193.67 8263.54 3177.07 8344.58 3193.67C8413.15 3210.28 8469.26 3243.49 8469.26 3271.16ZM10526.4 3453.82C10595 3575.58 10588.8 3608.79 10408 3813.59C10189.8 4057.12 9878.11 4433.5 9578.88 4826.48C9398.1 5064.48 9279.66 5153.04 9279.66 5058.95C9279.66 5036.81 9535.25 4710.25 9840.7 4328.34C10383 3658.61 10464.1 3525.77 10345.6 3464.89C10320.7 3448.28 9878.11 3558.98 9373.17 3708.42C8531.59 3957.49 8307.18 4001.77 8431.85 3891.08C8487.96 3841.26 10208.5 3332.05 10345.6 3326.51C10401.8 3320.98 10476.6 3381.86 10526.4 3453.82ZM13244.4 3608.79C13805.4 3769.31 14266.7 3929.82 14266.7 3963.03C14266.7 3996.24 13836.6 3896.61 13288 3736.1C12745.7 3575.58 12265.7 3459.35 12228.3 3475.96C12072.4 3520.24 12153.5 3653.07 12733.2 4367.08C13057.4 4760.06 13306.7 5097.69 13288 5114.3C13263.1 5130.9 13026.2 4881.83 12758.1 4555.27C12490.1 4223.17 12228.3 3913.22 12178.4 3863.4C11991.4 3664.14 11954 3547.91 12035 3431.68C12078.7 3370.79 12141 3320.98 12172.2 3320.98C12203.3 3320.98 12683.3 3453.82 13244.4 3608.79ZM11012.7 3741.63C11149.8 3774.84 11149.8 3785.91 11149.8 4743.46C11149.8 5368.9 11131.1 5695.46 11087.5 5673.32C11050.1 5651.18 11025.1 5285.88 11025.1 4754.52C11025.1 3907.68 11018.9 3874.47 10900.5 3874.47C10831.9 3874.47 10725.9 3940.89 10663.6 4029.45C10432.9 4356.01 9634.99 5258.2 9578.88 5258.2C9535.25 5258.2 9535.25 5236.06 9572.65 5186.25C9797.07 4931.64 10408 4189.96 10576.3 3968.56C10794.5 3691.82 10794.5 3691.82 11012.7 3741.63ZM12153.5 4189.96C12365.4 4461.17 12652.2 4809.87 12789.3 4970.39C12926.5 5130.9 13020 5274.81 13001.3 5296.95C12963.9 5330.16 12783.1 5153.04 12583.6 4892.9C12190.9 4367.08 11729.6 3874.47 11636.1 3874.47C11530.1 3874.47 11523.8 3946.42 11523.8 4787.73C11523.8 5357.83 11498.9 5701 11461.5 5701C11361.8 5701 11380.5 3780.38 11480.2 3747.17C11685.9 3669.68 11785.7 3730.56 12153.5 4189.96ZM9903.04 3841.26C9828.24 3907.68 8706.14 4261.92 8569 4261.92C8550.3 4261.92 8531.6 4239.78 8531.6 4212.1C8531.6 4184.43 8774.72 4095.87 9080.17 4018.38C9379.4 3935.35 9678.62 3846.8 9747.2 3819.12C9934.21 3747.17 10002.8 3752.7 9903.04 3841.26ZM13138.4 4322.8C13387.8 4627.22 13581 4892.9 13556.1 4909.5C13537.4 4931.64 13512.4 4931.64 13500 4920.57C13425.2 4826.48 12901.5 4195.5 12758.1 4029.45C12664.6 3918.75 12583.6 3813.59 12583.6 3796.98C12583.6 3680.75 12745.7 3835.73 13138.4 4322.8ZM13549.8 4267.45C13705.7 4455.64 13817.9 4621.69 13799.2 4638.29C13755.6 4677.04 13662.1 4588.48 13369.1 4217.64C13238.2 4062.66 13163.3 3929.82 13200.8 3929.82C13238.2 3929.82 13394 4084.8 13549.8 4267.45ZM13948.8 4217.64C14017.4 4278.52 14061 4356.01 14042.3 4383.68C14023.6 4411.36 13998.7 4427.96 13992.5 4416.89C13992.5 4405.82 13917.6 4333.87 13836.6 4245.31C13655.8 4068.19 13768 4040.52 13948.8 4217.64ZM9591.35 4256.38C9591.35 4333.87 8799.65 4577.41 8737.31 4516.52C8681.21 4466.71 8712.38 4455.64 9123.81 4333.87C9578.88 4195.5 9591.35 4195.5 9591.35 4256.38ZM11897.9 5047.88C11897.9 5407.65 11872.9 5645.65 11835.5 5645.65C11804.4 5645.65 11773.2 5540.49 11767 5407.65C11767 5280.34 11760.7 4970.39 11754.5 4715.78C11742 4339.41 11754.5 4278.52 11823.1 4356.01C11872.9 4416.89 11897.9 4654.9 11897.9 5047.88ZM10775.8 4389.22C10775.8 4422.43 10619.9 4643.83 10426.7 4870.76C10239.7 5097.69 10058.9 5324.62 10027.7 5368.9C9996.55 5413.18 9959.15 5435.32 9934.21 5418.72C9890.58 5374.44 10002.8 5208.39 10420.5 4688.11C10732.1 4306.2 10775.8 4267.45 10775.8 4389.22ZM9217.32 4732.39C9130.04 4820.94 8967.96 4843.08 8967.96 4765.59C8967.96 4710.25 9073.94 4660.43 9211.09 4654.9C9279.66 4649.36 9279.66 4665.97 9217.32 4732.39ZM12265.7 5125.37C12271.9 5418.72 12228.3 5590.3 12141 5590.3C12109.8 5590.3 12084.9 5385.51 12084.9 5130.9C12091.1 4748.99 12103.6 4693.64 12172.2 4771.13C12215.8 4826.48 12259.4 4986.99 12265.7 5125.37ZM10557.6 5258.2C10432.9 5413.18 10302 5534.95 10264.6 5534.95C10227.2 5534.95 10245.9 5479.6 10295.8 5407.65C10351.9 5341.23 10476.6 5180.71 10570.1 5047.88C10682.3 4898.43 10750.8 4843.08 10763.3 4898.43C10775.8 4942.71 10682.3 5108.76 10557.6 5258.2ZM12583.6 5252.67C12583.6 5280.34 12602.3 5341.23 12621 5391.04C12645.9 5451.93 12627.2 5479.6 12558.7 5479.6C12496.3 5479.6 12458.9 5429.79 12458.9 5341.23C12458.9 5263.74 12490.1 5202.85 12521.3 5202.85C12558.7 5202.85 12583.6 5224.99 12583.6 5252.67ZM10719.7 5606.9C10613.7 5701 10570.1 5612.44 10663.6 5485.14C10732.1 5385.51 10750.8 5379.97 10763.3 5457.46C10775.8 5507.28 10757.1 5573.7 10719.7 5606.9Z" fill="black"/>
<path d="M10401.8 77.5075C9192.38 376.394 8325.88 1178.96 8032.89 2263.81C7920.68 2690 7983.02 3536.84 8157.56 3957.49C8550.3 4881.83 9342 5507.28 10439.2 5756.35C12328 6188.07 14185.7 5241.6 14609.6 3642C14871.4 2656.79 14590.9 1649.43 13855.3 940.956C13163.3 282.299 12390.4 -5.51695 11318.1 5.55292C10969 5.55292 10557.6 38.763 10401.8 77.5075ZM11149.8 1134.68C11149.8 1666.03 11131.1 2103.29 11106.2 2103.29C11075 2103.29 11000.2 2119.9 10925.4 2136.5C10819.4 2158.64 10713.4 2064.55 10308.2 1566.4C10040.2 1239.84 9747.2 891.142 9672.39 791.513C9585.12 697.419 9547.71 603.326 9585.12 586.721C9616.29 570.116 9722.26 658.675 9822 791.513C10351.9 1499.98 10800.7 1992.59 10906.7 1992.59C11018.9 1992.59 11025.1 1937.24 11025.1 1079.33C11025.1 509.232 11050.1 166.066 11087.5 166.066C11124.9 166.066 11149.8 525.837 11149.8 1134.68ZM11523.8 1079.33C11523.8 2252.74 11536.3 2252.74 12334.2 1273.05C12658.4 874.537 12957.6 553.511 13001.3 553.511C13051.1 553.511 12988.8 664.21 12851.7 824.723C12720.7 974.166 12458.9 1284.12 12271.9 1522.12C11723.3 2197.39 11760.7 2169.71 11567.5 2130.97L11399.2 2092.22V1129.14C11399.2 525.836 11424.1 166.066 11461.5 166.066C11498.9 166.066 11523.8 509.232 11523.8 1079.33ZM10775.8 891.142C10775.8 1317.33 10750.8 1544.26 10713.4 1522.12C10676 1499.98 10651.1 1217.7 10651.1 852.397C10651.1 470.487 10676 221.415 10713.4 221.415C10750.8 221.415 10775.8 481.557 10775.8 891.142ZM11897.9 337.649C11854.2 398.533 11810.6 437.277 11791.9 420.673C11742 376.393 11823.1 221.415 11897.9 221.415C11941.5 221.415 11941.5 254.625 11897.9 337.649ZM10420.5 714.024C10432.9 1190.03 10314.5 1223.24 10289.5 747.234C10270.8 437.277 10308.2 232.485 10370.6 287.835C10389.3 304.439 10408 492.627 10420.5 714.024ZM12309.3 359.788C12253.2 498.162 11760.7 1057.19 11723.3 1023.98C11679.7 985.236 12222 276.764 12290.6 276.764C12321.8 276.764 12334.2 315.509 12309.3 359.788ZM10090.1 564.581C10090.1 702.954 10071.4 725.094 10027.7 664.21C9946.68 553.511 9946.68 387.463 10027.7 387.463C10065.1 387.463 10090.1 470.487 10090.1 564.581ZM12708.3 420.673C12708.3 481.557 11810.6 1549.8 11760.7 1549.8C11685.9 1549.8 11816.8 1356.08 12240.7 841.328C12571.1 437.278 12708.3 315.509 12708.3 420.673ZM13331.7 747.234C13331.7 763.838 13063.6 1101.47 12739.4 1499.98C12415.3 1892.96 12147.2 2252.74 12147.2 2297.01C12147.2 2429.85 12365.4 2396.64 13331.7 2108.83C13942.6 1931.71 14248 1859.76 14279.2 1904.03C14304.1 1942.78 14210.6 1992.59 14029.9 2036.87C13867.8 2075.62 13394 2208.46 12976.3 2330.22C12558.7 2446.46 12197.1 2546.09 12165.9 2546.09C12128.5 2546.09 12072.4 2485.2 12028.8 2413.25C11954 2297.01 11978.9 2247.2 12284.4 1876.36C12465.2 1649.43 12645.9 1439.1 12677.1 1405.89C12714.5 1372.68 12851.7 1206.63 12982.6 1035.05C13194.5 758.304 13331.7 647.605 13331.7 747.234ZM9578.88 1035.05C9691.09 1184.49 9921.74 1472.31 10096.3 1688.17C10632.4 2346.83 10607.5 2302.55 10514 2429.85C10470.3 2496.27 10401.8 2546.09 10358.1 2546.09C10177.3 2546.09 8344.58 1970.45 8388.22 1931.71C8419.39 1904.03 8849.52 2003.66 9348.23 2147.57C9846.94 2297.01 10289.5 2402.18 10326.9 2391.11C10464.1 2352.36 10401.8 2219.53 10040.2 1787.8C9610.05 1278.59 9279.66 852.397 9279.66 808.118C9279.66 714.024 9398.1 802.583 9578.88 1035.05ZM9560.18 1566.4C9927.98 2003.66 10027.7 2180.78 9853.17 2081.15C9759.66 2031.34 9030.3 1107 9030.3 1035.05C9030.3 957.561 9061.47 985.236 9560.18 1566.4ZM13668.3 1046.12C13705.7 1101.47 13394 1234.31 13337.9 1190.03C13319.2 1167.89 13356.6 1118.07 13418.9 1073.79C13562.3 985.236 13624.7 974.166 13668.3 1046.12ZM9217.32 1699.24C9323.29 1832.08 9385.63 1937.24 9348.23 1937.24C9260.96 1937.24 8780.95 1367.15 8780.95 1267.52C8780.95 1190.03 8868.22 1267.52 9217.32 1699.24ZM13955 1322.87C13955 1372.68 13786.7 1433.57 13275.6 1577.47C13094.8 1627.29 12932.7 1654.96 12914 1638.36C12870.4 1599.61 13188.3 1466.77 13537.4 1378.22C13699.5 1339.47 13830.4 1284.12 13830.4 1256.45C13830.4 1234.31 13861.5 1228.77 13892.7 1245.38C13930.1 1261.98 13955 1300.73 13955 1322.87ZM8774.72 1743.52C8718.61 1787.8 8525.36 1605.15 8562.76 1549.8C8593.93 1505.52 8637.57 1527.66 8699.91 1605.15C8749.78 1671.57 8780.95 1732.45 8774.72 1743.52ZM14142.1 1599.61C14142.1 1654.96 12633.5 2114.36 12589.8 2070.08C12533.7 2025.8 12652.2 1975.99 13344.1 1771.2C14142.1 1533.19 14142.1 1533.19 14142.1 1599.61ZM14391.4 2180.78C14391.4 2230.6 14061 2352.36 13400.2 2540.55C12502.6 2795.16 12228.3 2922.46 12390.4 3011.02C12415.3 3027.63 12876.6 3166 13412.7 3320.98C14129.6 3525.77 14391.4 3625.4 14391.4 3691.82C14391.4 3752.7 14366.5 3763.77 14316.6 3725.03C14273 3691.82 13780.5 3536.84 13225.7 3381.86C12228.3 3099.58 12209.6 3094.05 12209.6 2939.07C12209.6 2756.41 12172.2 2773.02 13362.8 2435.39C13811.7 2308.08 14216.9 2180.78 14266.7 2153.11C14391.4 2092.22 14391.4 2092.22 14391.4 2180.78ZM9111.34 2413.25C10370.6 2773.02 10339.4 2756.41 10339.4 2933.53C10339.4 3110.65 10351.9 3105.12 9167.45 3431.68C8706.14 3558.98 8319.64 3647.54 8294.71 3630.93C8244.84 3581.12 8251.07 3575.58 9236.02 3298.84C10408 2961.21 10420.5 2922.46 9423.04 2634.65C8307.18 2313.62 8282.24 2308.08 8282.24 2258.27C8282.24 2186.32 8375.75 2202.92 9111.34 2413.25ZM11767 2518.41C11910.3 2667.86 11960.2 2767.48 11960.2 2933.53C11960.2 3099.58 11910.3 3199.21 11767 3348.65C11598.7 3520.24 11536.3 3542.37 11280.7 3542.37C11031.4 3542.37 10956.6 3514.7 10794.5 3359.72C10470.3 3055.3 10470.3 2789.62 10807 2474.13C10937.9 2352.36 11018.9 2324.69 11268.3 2324.69C11536.3 2324.69 11592.4 2346.83 11767 2518.41ZM9017.84 2723.2C9578.88 2883.72 9803.3 2988.88 9578.88 2988.88C9454.21 2988.88 8319.64 2651.25 8257.31 2595.9C8145.1 2507.34 8357.05 2540.55 9017.84 2723.2ZM14478.7 2634.65C14509.9 2706.6 14491.2 2717.67 14379 2690C14297.9 2673.39 14198.2 2656.79 14160.8 2656.79C14117.1 2656.79 14079.7 2629.11 14079.7 2601.44C14079.7 2507.34 14435.1 2540.55 14478.7 2634.65ZM14067.3 2828.37C14310.4 2894.79 14516.1 2977.81 14516.1 3016.56C14516.1 3060.84 14366.5 3044.23 14036.1 2944.6C13225.7 2717.67 13256.9 2618.04 14067.3 2828.37ZM8612.64 2955.67C9067.71 3099.58 9179.92 3154.93 8992.9 3154.93C8805.88 3149.39 8194.97 2950.14 8170.03 2883.72C8138.86 2806.23 8120.16 2800.69 8612.64 2955.67ZM13749.3 3077.44C14341.5 3249.02 14453.8 3298.84 14453.8 3392.93C14453.8 3492.56 14441.3 3498.1 14379 3420.61C14335.3 3376.33 13980 3254.56 13599.7 3154.93C13213.2 3049.77 12895.3 2950.14 12895.3 2922.46C12895.3 2844.97 13026.2 2872.65 13749.3 3077.44ZM8469.26 3271.16C8469.26 3298.84 8413.15 3320.98 8344.58 3320.98C8276.01 3320.98 8219.9 3287.77 8219.9 3243.49C8219.9 3193.67 8263.54 3177.07 8344.58 3193.67C8413.15 3210.28 8469.26 3243.49 8469.26 3271.16ZM10526.4 3453.82C10595 3575.58 10588.8 3608.79 10408 3813.59C10189.8 4057.12 9878.11 4433.5 9578.88 4826.48C9398.1 5064.48 9279.66 5153.04 9279.66 5058.95C9279.66 5036.81 9535.25 4710.25 9840.7 4328.34C10383 3658.61 10464.1 3525.77 10345.6 3464.89C10320.7 3448.28 9878.11 3558.98 9373.17 3708.42C8531.59 3957.49 8307.18 4001.77 8431.85 3891.08C8487.96 3841.26 10208.5 3332.05 10345.6 3326.51C10401.8 3320.98 10476.6 3381.86 10526.4 3453.82ZM13244.4 3608.79C13805.4 3769.31 14266.7 3929.82 14266.7 3963.03C14266.7 3996.24 13836.6 3896.61 13288 3736.1C12745.7 3575.58 12265.7 3459.35 12228.3 3475.96C12072.4 3520.24 12153.5 3653.07 12733.2 4367.08C13057.4 4760.06 13306.7 5097.69 13288 5114.3C13263.1 5130.9 13026.2 4881.83 12758.1 4555.27C12490.1 4223.17 12228.3 3913.22 12178.4 3863.4C11991.4 3664.14 11954 3547.91 12035 3431.68C12078.7 3370.79 12141 3320.98 12172.2 3320.98C12203.3 3320.98 12683.3 3453.82 13244.4 3608.79ZM11012.7 3741.63C11149.8 3774.84 11149.8 3785.91 11149.8 4743.46C11149.8 5368.9 11131.1 5695.46 11087.5 5673.32C11050.1 5651.18 11025.1 5285.88 11025.1 4754.52C11025.1 3907.68 11018.9 3874.47 10900.5 3874.47C10831.9 3874.47 10725.9 3940.89 10663.6 4029.45C10432.9 4356.01 9634.99 5258.2 9578.88 5258.2C9535.25 5258.2 9535.25 5236.06 9572.65 5186.25C9797.07 4931.64 10408 4189.96 10576.3 3968.56C10794.5 3691.82 10794.5 3691.82 11012.7 3741.63ZM12153.5 4189.96C12365.4 4461.17 12652.2 4809.87 12789.3 4970.39C12926.5 5130.9 13020 5274.81 13001.3 5296.95C12963.9 5330.16 12783.1 5153.04 12583.6 4892.9C12190.9 4367.08 11729.6 3874.47 11636.1 3874.47C11530.1 3874.47 11523.8 3946.42 11523.8 4787.73C11523.8 5357.83 11498.9 5701 11461.5 5701C11361.8 5701 11380.5 3780.38 11480.2 3747.17C11685.9 3669.68 11785.7 3730.56 12153.5 4189.96ZM9903.04 3841.26C9828.24 3907.68 8706.14 4261.92 8569 4261.92C8550.3 4261.92 8531.6 4239.78 8531.6 4212.1C8531.6 4184.43 8774.72 4095.87 9080.17 4018.38C9379.4 3935.35 9678.62 3846.8 9747.2 3819.12C9934.21 3747.17 10002.8 3752.7 9903.04 3841.26ZM13138.4 4322.8C13387.8 4627.22 13581 4892.9 13556.1 4909.5C13537.4 4931.64 13512.4 4931.64 13500 4920.57C13425.2 4826.48 12901.5 4195.5 12758.1 4029.45C12664.6 3918.75 12583.6 3813.59 12583.6 3796.98C12583.6 3680.75 12745.7 3835.73 13138.4 4322.8ZM13549.8 4267.45C13705.7 4455.64 13817.9 4621.69 13799.2 4638.29C13755.6 4677.04 13662.1 4588.48 13369.1 4217.64C13238.2 4062.66 13163.3 3929.82 13200.8 3929.82C13238.2 3929.82 13394 4084.8 13549.8 4267.45ZM13948.8 4217.64C14017.4 4278.52 14061 4356.01 14042.3 4383.68C14023.6 4411.36 13998.7 4427.96 13992.5 4416.89C13992.5 4405.82 13917.6 4333.87 13836.6 4245.31C13655.8 4068.19 13768 4040.52 13948.8 4217.64ZM9591.35 4256.38C9591.35 4333.87 8799.65 4577.41 8737.31 4516.52C8681.21 4466.71 8712.38 4455.64 9123.81 4333.87C9578.88 4195.5 9591.35 4195.5 9591.35 4256.38ZM11897.9 5047.88C11897.9 5407.65 11872.9 5645.65 11835.5 5645.65C11804.4 5645.65 11773.2 5540.49 11767 5407.65C11767 5280.34 11760.7 4970.39 11754.5 4715.78C11742 4339.41 11754.5 4278.52 11823.1 4356.01C11872.9 4416.89 11897.9 4654.9 11897.9 5047.88ZM10775.8 4389.22C10775.8 4422.43 10619.9 4643.83 10426.7 4870.76C10239.7 5097.69 10058.9 5324.62 10027.7 5368.9C9996.55 5413.18 9959.15 5435.32 9934.21 5418.72C9890.58 5374.44 10002.8 5208.39 10420.5 4688.11C10732.1 4306.2 10775.8 4267.45 10775.8 4389.22ZM9217.32 4732.39C9130.04 4820.94 8967.96 4843.08 8967.96 4765.59C8967.96 4710.25 9073.94 4660.43 9211.09 4654.9C9279.66 4649.36 9279.66 4665.97 9217.32 4732.39ZM12265.7 5125.37C12271.9 5418.72 12228.3 5590.3 12141 5590.3C12109.8 5590.3 12084.9 5385.51 12084.9 5130.9C12091.1 4748.99 12103.6 4693.64 12172.2 4771.13C12215.8 4826.48 12259.4 4986.99 12265.7 5125.37ZM10557.6 5258.2C10432.9 5413.18 10302 5534.95 10264.6 5534.95C10227.2 5534.95 10245.9 5479.6 10295.8 5407.65C10351.9 5341.23 10476.6 5180.71 10570.1 5047.88C10682.3 4898.43 10750.8 4843.08 10763.3 4898.43C10775.8 4942.71 10682.3 5108.76 10557.6 5258.2ZM12583.6 5252.67C12583.6 5280.34 12602.3 5341.23 12621 5391.04C12645.9 5451.93 12627.2 5479.6 12558.7 5479.6C12496.3 5479.6 12458.9 5429.79 12458.9 5341.23C12458.9 5263.74 12490.1 5202.85 12521.3 5202.85C12558.7 5202.85 12583.6 5224.99 12583.6 5252.67ZM10719.7 5606.9C10613.7 5701 10570.1 5612.44 10663.6 5485.14C10732.1 5385.51 10750.8 5379.97 10763.3 5457.46C10775.8 5507.28 10757.1 5573.7 10719.7 5606.9Z" stroke="black" stroke-width="2" mask="url(#path-3-inside-1)"/>
</g>
<path id="Vector_3" d="M16511 2905.86C16511 5451.93 16523.4 5811.7 16604.5 5811.7C16685.5 5811.7 16698 5662.26 16698 4815.41V3819.13L18119.3 3824.66H19534.4L20307.4 4793.27C21011.8 5673.33 21261.2 5927.94 21354.7 5850.45C21367.1 5833.84 21217.5 5617.98 21018 5368.91C20818.6 5119.84 20612.8 4859.69 20563 4798.81C20513.1 4732.39 20307.4 4477.78 20114.1 4239.78C19914.7 3996.24 19752.6 3785.92 19752.6 3769.31C19752.6 3752.71 19914.7 3675.22 20114.1 3597.73C20581.7 3420.61 21018 3027.63 21167.7 2640.18C21329.7 2225.06 21317.3 1494.45 21142.7 1151.29C20968.2 813.657 20575.4 442.817 20226.3 287.838C19727.6 66.4411 19197.8 0.0222306 17807.6 0.0222306H16511V2905.86ZM19553.1 249.094C20089.2 359.793 20382.2 503.701 20669 797.052C20974.4 1101.47 21092.9 1444.64 21086.6 1970.46C21074.2 2673.39 20644 3249.03 19945.8 3498.1C19627.9 3608.8 19465.8 3625.4 18150.5 3642.01L16698 3664.15V1915.11V166.07H17932.3C18798.8 166.07 19278.8 193.745 19553.1 249.094Z" fill="black"/>
<path id="Vector_4" d="M22495.5 83.0241C22495.5 154.978 22676.3 166.048 23742.3 166.048H24989.1V2197.37C24989.1 3320.96 24957.9 4405.8 24926.7 4616.13C24851.9 5070 24689.9 5324.6 24347 5523.86C24128.8 5651.16 24035.3 5673.3 23592.7 5673.3C23150.1 5673.3 23050.4 5651.16 22751.1 5507.26C22564.1 5418.7 22339.7 5263.72 22252.4 5164.09C22084.1 4975.9 21934.5 4926.09 21934.5 5053.39C21934.5 5164.09 22433.2 5562.61 22726.2 5695.44C23493 6038.61 24565.2 5822.75 24914.3 5258.18C25144.9 4887.34 25176.1 4555.25 25176.1 2241.65V0.000104583H23835.8C22688.8 0.000104583 22495.5 11.07 22495.5 83.0241Z" fill="black"/>
<path id="Vector_5" d="M29134.6 376.382C29034.8 581.174 28723.2 1184.48 28442.6 1715.84C27451.4 3603.25 26360.5 5706.52 26341.8 5767.4C26335.6 5800.61 26366.8 5839.36 26410.4 5850.43C26460.3 5867.03 26634.8 5601.36 26915.3 5081.07C27146 4649.35 27357.9 4245.3 27376.6 4189.95C27414 4101.39 27569.9 4095.86 29427.6 4095.86H31441.1L31840.1 4854.14C32276.5 5695.45 32382.4 5867.03 32469.7 5867.03C32581.9 5867.03 32532 5712.05 32214.1 5114.28C32039.6 4782.19 31653.1 4034.97 31347.6 3459.34C30873.8 2535 30331.5 1505.51 29714.3 343.172C29477.4 -110.692 29377.7 -105.157 29134.6 376.382ZM30406.3 2108.82C30892.5 3044.22 31285.3 3835.71 31285.3 3868.92C31285.3 3913.2 30755.4 3929.81 29415.1 3929.81C28386.5 3929.81 27545 3918.74 27545 3907.67C27545 3902.13 27669.6 3658.6 27813 3370.78C29190.7 725.083 29440 276.753 29483.7 343.172C29508.6 381.917 29920.1 1178.95 30406.3 2108.82Z" fill="black"/>
<path id="Vector_6" d="M16.196 6392.82C-2.50553 6426.03 -2.50553 6935.24 3.72832 7527.48L22.4299 8606.79L383.993 8623.4L739.323 8640V8235.95V7831.9H1287.9H1830.25L1848.95 7571.76L1867.65 7317.15H1319.07H770.492L751.791 7057.01L733.089 6796.87L1375.18 6819.01L2017.26 6835.61V6592.08V6348.54L1026.08 6343C402.695 6337.47 28.6637 6359.61 16.196 6392.82Z" fill="black"/>
<path id="Vector_7" d="M2653.18 6885.4C2491.1 6924.14 2341.49 6973.96 2322.79 6990.56C2304.09 7007.17 2322.79 7112.33 2366.42 7223.03C2435 7389.08 2472.4 7416.75 2578.38 7383.54C2646.95 7361.4 2840.2 7344.8 3008.51 7339.26C3257.87 7333.73 3326.44 7355.87 3401.24 7455.5C3494.75 7582.8 3494.75 7582.8 3164.36 7582.8C2441.23 7582.8 2123.3 7782.06 2191.88 8175.04C2216.81 8285.74 2285.38 8429.65 2353.96 8485C2516.04 8634.44 3033.45 8673.18 3282.8 8562.49C3451.12 8490.53 3476.05 8490.53 3507.22 8562.49C3532.16 8617.83 3625.66 8634.44 3837.61 8623.37L4136.84 8606.76V7970.25C4136.84 7449.96 4118.14 7300.52 4024.63 7178.75C3800.21 6874.33 3208 6747.03 2653.18 6885.4ZM3444.88 7959.18C3513.45 8058.81 3289.04 8246.99 3102.02 8246.99C2908.77 8246.99 2815.26 8141.83 2883.83 7997.92C2921.24 7909.36 3388.78 7876.15 3444.88 7959.18Z" fill="black"/>
<path id="Vector_8" d="M5645.37 6863.29C5545.63 6890.97 5427.18 6940.78 5377.31 6979.52C5308.74 7029.34 5290.04 7023.8 5290.04 6951.85C5290.04 6879.9 5221.47 6863.29 4947.18 6863.29H4604.32V7748.88V8634.47H4940.94H5277.57L5302.51 8103.12C5321.21 7627.11 5333.68 7560.69 5470.82 7466.6C5551.86 7411.25 5682.77 7361.43 5763.81 7361.43C5863.55 7361.43 5913.43 7328.23 5919.66 7261.81C5957.06 6807.94 5938.36 6785.8 5645.37 6863.29Z" fill="black"/>
<path id="Vector_9" d="M7129.19 6890.96C7010.75 6946.31 6935.94 6957.38 6923.48 6924.17C6911.01 6890.96 6748.93 6863.29 6561.91 6863.29H6225.28V7748.88V8634.47H6568.15H6911.01V8119.72C6911.01 7527.48 6992.05 7361.43 7285.04 7361.43C7540.63 7361.43 7596.73 7488.74 7596.73 8103.12V8634.47H7939.59H8282.46V8092.05C8282.46 7505.34 8351.03 7361.43 8637.79 7361.43C8849.74 7361.43 8899.61 7483.2 8918.31 8058.84L8937.01 8606.8H9279.87H9622.73L9641.44 8047.77C9660.14 7405.71 9579.1 7123.43 9323.51 6951.85C9086.62 6796.87 8556.75 6796.87 8313.62 6957.38C8132.84 7073.62 8132.84 7073.62 7970.76 6962.92C7740.11 6813.48 7359.85 6780.27 7129.19 6890.96Z" fill="black"/>
<path id="Vector_10" d="M10682.3 6835.64C10651.1 6846.71 10545.1 6868.85 10457.9 6885.46C10189.8 6935.27 9965.39 7178.81 9965.39 7411.27C9965.39 7748.9 10245.9 7926.02 10869.3 7981.37C10994 7992.44 11062.6 8031.19 11075 8103.14C11100 8208.3 11031.4 8208.3 10227.2 8125.28C10115 8114.21 10058.9 8147.42 9996.56 8291.33C9909.29 8468.44 9909.29 8473.98 10077.6 8534.86C10302 8612.35 10900.5 8656.63 11174.8 8612.35C11480.2 8562.54 11773.2 8302.4 11773.2 8081C11773.2 7815.32 11492.7 7599.46 11093.7 7549.65C10919.2 7533.04 10725.9 7477.69 10669.8 7438.95C10426.7 7272.9 10869.3 7212.02 11374.2 7339.32C11467.8 7361.46 11517.6 7333.79 11573.7 7223.09C11617.4 7145.6 11648.5 7045.97 11648.5 7001.69C11648.5 6890.99 10919.2 6763.69 10682.3 6835.64Z" fill="black"/>
<path id="Vector_11" d="M12459 7721.22C12459 7793.18 13618.5 7804.25 22495.5 7804.25C31372.5 7804.25 32532 7793.18 32532 7721.22C32532 7649.27 31372.5 7638.2 22495.5 7638.2C13618.5 7638.2 12459 7649.27 12459 7721.22Z" fill="black"/>
</g>
<defs>
<filter id="filter0_d" x="7972.51" y="5.24609" width="6737.15" height="5863.5" filterUnits="userSpaceOnUse" color-interpolation-filters="sRGB">
<feFlood flood-opacity="0" result="BackgroundImageFix"/>
<feColorMatrix in="SourceAlpha" type="matrix" values="0 0 0 0 0 0 0 0 0 0 0 0 0 0 0 0 0 0 127 0"/>
<feOffset dy="4"/>
<feGaussianBlur stdDeviation="2"/>
<feColorMatrix type="matrix" values="0 0 0 0 0 0 0 0 0 0 0 0 0 0 0 0 0 0 0.25 0"/>
<feBlend mode="normal" in2="BackgroundImageFix" result="effect1_dropShadow"/>
<feBlend mode="normal" in="SourceGraphic" in2="effect1_dropShadow" result="shape"/>
</filter>
</defs>
</svg>
